<mxfile host="app.diagrams.net" modified="2024-04-04T09:01:42.905Z" agent="Mozilla/5.0 (Macintosh; Intel Mac OS X 10_15_7) AppleWebKit/537.36 (KHTML, like Gecko) Chrome/121.0.0.0 Safari/537.36" version="24.2.2" etag="9WnNCTMKczOG5onMPatC" type="github">
  <diagram name="Page-1" id="Bk5UpEYgkO_Q52dxymm0">
    <mxGraphModel>
      <root>
        <mxCell id="0" />
        <mxCell id="1" parent="0" />
      </root>
    </mxGraphModel>
  </diagram>
</mxfile>
